<svg xmlns="http://www.w3.org/2000/svg" width="448" height="480" viewBox="0 0 448 480"><defs><style>.a{fill:#70a3d7;}</style></defs><title>heater_icon</title><path class="a" d="M312,400h16v16H312Z"/><path class="a" d="M272,112h16V96H264a8,8,0,0,0-8,8v40h16Z"/><path class="a" d="M256,160h16v16H256Z"/><path class="a" d="M0,136a8,8,0,0,0,8,8H24v40a40.0471,40.0471,0,0,0,40,40H224V440a8,8,0,0,0,8,8h8v24a8,8,0,0,0,8,8h32a8,8,0,0,0,8-8V448h64v24a8,8,0,0,0,8,8h32a8,8,0,0,0,8-8V448h8a8,8,0,0,0,8-8V128h16v16h16V120a8,8,0,0,0-8-8H416V72a8,8,0,0,0-8-8H392V48H376V64H358.2461l-6.4844-25.9453A8.0053,8.0053,0,0,0,344,32H296a8.0053,8.0053,0,0,0-7.7617,6.0547L281.7539,64H264V48H248V64H232a8,8,0,0,0-8,8V176H72V144h32a8,8,0,0,0,8-8V8a8,8,0,0,0-8-8H8A8,8,0,0,0,0,8ZM272,464H256V448h16Zm24-128V320h48v16Zm32,16v16H312V352Zm32,32v48H280V384Zm24,80H368V448h16ZM302.2461,48h35.5078l4,16H298.2461ZM240,80H400v32H384V96H368v48h16V128h16V432H376V376a8,8,0,0,0-8-8H344V352h8a8,8,0,0,0,8-8V312a8,8,0,0,0-8-8H288a8,8,0,0,0-8,8v32a8,8,0,0,0,8,8h8v16H272a8,8,0,0,0-8,8v56H240ZM64,192H224v16H64a24.0012,24.0012,0,0,1-24-24V144H56v40A8,8,0,0,0,64,192ZM16,16H96V128H16Z"/><path class="a" d="M32,32H64V48H32Z"/><path class="a" d="M32,64H64V80H32Z"/><path class="a" d="M32,96H64v16H32Z"/><path class="a" d="M256,192h16v80H256Z"/></svg>