<svg xmlns="http://www.w3.org/2000/svg" width="467.6256" height="507.7143" viewBox="0 0 467.6256 507.7143"><defs><style>.a{fill:#70a3d7;stroke:#70a3d7;stroke-miterlimit:10;stroke-width:2.9576px;}</style></defs><title>plumbing_icon</title><path class="a" d="M466.1468,283.3263a33.1247,33.1247,0,0,0-25.3049-32.1231V75.4178a74.0217,74.0217,0,0,0-73.939-73.939H184.1889a74.0218,74.0218,0,0,0-73.939,73.939v49.0481H71.1431a6.9009,6.9009,0,0,0-6.897,6.901V163.9H32.04A30.597,30.597,0,0,0,1.4788,194.4615v15.7736a6.897,6.897,0,0,0,6.8931,6.901H265.36a6.8969,6.8969,0,0,0,6.9009-6.8931V194.4615A30.597,30.597,0,0,0,241.7,163.9H209.4938V131.3669a6.901,6.901,0,0,0-6.901-6.901H163.486V75.4178a20.7266,20.7266,0,0,1,20.7029-20.703h182.714a20.7266,20.7266,0,0,1,20.7029,20.703V251.2032a33.0306,33.0306,0,0,0-16.2468,9.4642H324.8267a22.6746,22.6746,0,0,0,0,45.3492H371.359a33.0491,33.0491,0,0,0,16.2468,9.4248V499.3345a6.8972,6.8972,0,0,0,6.8931,6.901h39.442a6.897,6.897,0,0,0,6.901-6.8931V315.4453A33.1247,33.1247,0,0,0,466.1468,283.3263ZM258.4552,194.4615v8.8726H15.2807v-8.8726a16.7792,16.7792,0,0,1,16.76-16.76H241.7A16.7792,16.7792,0,0,1,258.4552,194.4615ZM195.6918,163.9H78.048V138.2679H195.6918ZM366.9029,40.9129H184.1889A34.5444,34.5444,0,0,0,149.684,75.4178v49.0481H124.0519V75.4178a60.204,60.204,0,0,1,60.137-60.1371h182.714A60.2042,60.2042,0,0,1,427.04,75.4178V250.241H401.4078V75.4178A34.5443,34.5443,0,0,0,366.9029,40.9129Zm-3.3913,251.286h-38.677a8.8727,8.8727,0,1,1,0-17.7453h38.677A33.3013,33.3013,0,0,0,363.5116,292.1989ZM427.04,492.4336H401.4078v-176.03H427.04Zm6.132-189.84H395.3468a19.2754,19.2754,0,1,1,.0394-38.5508h37.8252a19.2675,19.2675,0,0,1-.0394,38.535h0Z"/><path class="a" d="M35.6524,244.598a6.9009,6.9009,0,0,0-6.897,6.8931v31.4132a6.901,6.901,0,1,0,13.8019,0V251.4911A6.9009,6.9009,0,0,0,35.6524,244.598Z"/><path class="a" d="M76.1394,244.598a6.901,6.901,0,0,0-6.901,6.901v31.4132a6.901,6.901,0,0,0,13.802,0V251.4911A6.905,6.905,0,0,0,76.1394,244.598Z"/><path class="a" d="M116.6264,244.598a6.901,6.901,0,0,0-6.901,6.901v31.4132a6.901,6.901,0,1,0,13.802,0V251.4911A6.9011,6.9011,0,0,0,116.6264,244.598Z"/><path class="a" d="M157.1134,244.598a6.9011,6.9011,0,0,0-6.901,6.8931v31.4132a6.901,6.901,0,1,0,13.802,0V251.4911A6.9011,6.9011,0,0,0,157.1134,244.598Z"/><path class="a" d="M197.5965,244.598a6.905,6.905,0,0,0-6.901,6.901v31.4132a6.901,6.901,0,0,0,13.802,0V251.4911A6.9011,6.9011,0,0,0,197.5965,244.598Z"/><path class="a" d="M238.0835,244.598a6.901,6.901,0,0,0-6.901,6.901v31.4132a6.901,6.901,0,0,0,13.802,0V251.4911A6.9011,6.9011,0,0,0,238.0835,244.598Z"/><path class="a" d="M55.3852,316.7427a6.897,6.897,0,0,0-6.9128,6.8812v31.4409a6.901,6.901,0,0,0,13.802,0V323.6555a6.8972,6.8972,0,0,0-6.8813-6.9128Z"/><path class="a" d="M95.8722,316.7427a6.897,6.897,0,0,0-6.9009,6.8931V355.053a6.901,6.901,0,1,0,13.8019,0V323.6555a6.901,6.901,0,0,0-6.8891-6.9128Z"/><path class="a" d="M136.3592,316.7427a6.897,6.897,0,0,0-6.9009,6.8931V355.053a6.901,6.901,0,1,0,13.8019,0V323.6555a6.8969,6.8969,0,0,0-6.8812-6.9127Z"/><path class="a" d="M176.8463,316.7427A6.8971,6.8971,0,0,0,169.93,323.62v31.4448a6.901,6.901,0,1,0,13.8019,0V323.6555a6.897,6.897,0,0,0-6.8812-6.9128Z"/><path class="a" d="M217.3293,316.7427a6.901,6.901,0,0,0-6.901,6.901V355.053a6.901,6.901,0,0,0,13.802,0V323.6555a6.8969,6.8969,0,0,0-6.8812-6.9127Z"/><path class="a" d="M35.6524,388.8835a6.897,6.897,0,0,0-6.897,6.897v31.4132a6.901,6.901,0,1,0,13.8019,0V395.7845a6.8971,6.8971,0,0,0-6.8931-6.901Z"/><path class="a" d="M76.1394,388.8835a6.897,6.897,0,0,0-6.901,6.8931v31.4171a6.901,6.901,0,0,0,13.802,0V395.7845a6.901,6.901,0,0,0-6.901-6.901Z"/><path class="a" d="M116.6264,388.8835a6.897,6.897,0,0,0-6.901,6.8931v31.4171a6.901,6.901,0,1,0,13.802,0V395.7845a6.8971,6.8971,0,0,0-6.8931-6.901Z"/><path class="a" d="M157.1134,388.8835a6.897,6.897,0,0,0-6.901,6.8931v31.4171a6.901,6.901,0,1,0,13.802,0V395.7845a6.8971,6.8971,0,0,0-6.8931-6.901Z"/><path class="a" d="M197.5965,388.8835a6.901,6.901,0,0,0-6.901,6.901h0v31.4092a6.901,6.901,0,0,0,13.802,0V395.7845a6.8972,6.8972,0,0,0-6.8931-6.901Z"/><path class="a" d="M238.0835,388.8835a6.897,6.897,0,0,0-6.901,6.8931v31.4171a6.901,6.901,0,0,0,13.802,0V395.7845a6.8972,6.8972,0,0,0-6.8931-6.901Z"/><path class="a" d="M55.3852,461.0243a6.8969,6.8969,0,0,0-6.9009,6.8931v31.4171a6.901,6.901,0,1,0,13.8019,0V467.9253a6.8971,6.8971,0,0,0-6.8931-6.901Z"/><path class="a" d="M95.8722,461.0243a6.8969,6.8969,0,0,0-6.9009,6.8931v31.4171a6.901,6.901,0,1,0,13.8019,0V467.9253A6.901,6.901,0,0,0,95.8722,461.0243Z"/><path class="a" d="M136.3592,461.0243a6.8969,6.8969,0,0,0-6.9009,6.8931v31.4171a6.901,6.901,0,1,0,13.8019,0V467.9253a6.8971,6.8971,0,0,0-6.8931-6.901Z"/><path class="a" d="M176.8463,461.0243a6.897,6.897,0,0,0-6.901,6.8931v31.4171a6.901,6.901,0,1,0,13.8019,0V467.9253a6.897,6.897,0,0,0-6.8931-6.901Z"/><path class="a" d="M217.3293,461.0243a6.901,6.901,0,0,0-6.901,6.901v31.4092a6.901,6.901,0,0,0,13.802,0V467.9253a6.8971,6.8971,0,0,0-6.8931-6.901Z"/></svg>