<svg xmlns="http://www.w3.org/2000/svg" width="4115.0115" height="232.0024" viewBox="0 0 4115.0115 232.0024"><defs><style>.a{fill:#ebebeb;}</style></defs><title>waves</title><path class="a" d="M11.9583,120.8981c1.6679,2.6887,2.8217,2.8878,5.2627.8274A103.0107,103.0107,0,0,1,39.77,107.058c14.0472-6.6146,28.1724-7.1185,42.4985-.8249,9.5531,4.1968,17.9778,10.1035,25.9695,16.683a211.1617,211.1617,0,0,0,31.018,21.7959c29.4793,16.47,59.185,17.2615,89.168,1.4413a174.6045,174.6045,0,0,0,28.99-19.456c7.2278-5.9088,14.5625-11.6444,22.7846-16.1582q31.0161-17.0274,61.908.1564a131.57,131.57,0,0,1,20.0288,14.0078,192.9355,192.9355,0,0,0,27.3924,19.16c32.3947,18.4859,64.8455,18.7178,97.3941.4148a204.5545,204.5545,0,0,0,29.8011-20.93c.2457-.2028.4941-.4017.74-.604a11.1934,11.1934,0,0,0,1.1542-.8508c7.8777-6.4368,16.0349-12.45,25.4134-16.6375a43.9764,43.9764,0,0,1,10.2766-3.2039c.0675-.0119.1348-.0258.2022-.0373.5666-.0973,1.1331-.1761,1.6995-.2481.1545-.0194.309-.0423.4634-.06.4817-.0552.9633-.0946,1.445-.1315.2384-.0179.477-.04.7154-.053.4-.023.7994-.0327,1.1991-.0431.32-.0079.6393-.0185.9588-.0183s.6392.01.9588.0183c.4.01.7994.02,1.1991.0431.2384.0134.477.0351.7154.053.4816.0369.9633.0763,1.445.1315.1544.0175.3089.04.4633.06.5665.072,1.133.1508,1.7.2481.0673.0115.1347.0254.2022.0373a43.9764,43.9764,0,0,1,10.2766,3.2039c9.3785,4.1878,17.5357,10.2007,25.4134,16.6375a11.1934,11.1934,0,0,0,1.1542.8508c.2461.2023.4945.4012.74.604a204.5554,204.5554,0,0,0,29.8012,20.93c32.5485,18.303,64.9993,18.0711,97.394-.4148a192.93,192.93,0,0,0,27.3924-19.16,131.57,131.57,0,0,1,20.0288-14.0078q30.9176-17.1358,61.908-.1564c8.222,4.5138,15.5568,10.2494,22.7845,16.1582a174.61,174.61,0,0,0,28.99,19.456c29.983,15.82,59.6887,15.0282,89.168-1.4413a211.1679,211.1679,0,0,0,31.0181-21.7959c7.9916-6.5795,16.4162-12.4862,25.9693-16.683a47.8485,47.8485,0,0,1,40.1792,0c9.5531,4.1968,17.9778,10.1035,25.9695,16.683a211.1617,211.1617,0,0,0,31.018,21.7959c29.4793,16.47,59.185,17.2615,89.1681,1.4413a174.6128,174.6128,0,0,0,28.99-19.456c7.2278-5.9088,14.5625-11.6444,22.7844-16.1582q31.0162-17.0274,61.9081.1564a131.56,131.56,0,0,1,20.0287,14.0078,192.943,192.943,0,0,0,27.3926,19.16c32.3945,18.4859,64.8454,18.7178,97.394.4148a204.5482,204.5482,0,0,0,29.801-20.93c.2459-.2028.4942-.4017.74-.604a11.2043,11.2043,0,0,0,1.1542-.8508c7.8778-6.4368,16.0349-12.45,25.4134-16.6375a43.9764,43.9764,0,0,1,10.2766-3.2039c.0674-.0119.1348-.0258.2022-.0373.5666-.0973,1.133-.1761,1.7-.2481.1544-.0194.3089-.0423.4633-.06.4816-.0552.9633-.0946,1.445-.1315.2385-.0179.477-.04.7153-.053.4-.023.8-.0327,1.1992-.0431.32-.0079.6393-.0185.9588-.0183s.6391.01.9587.0183c.4.01.8.02,1.1992.0431.2384.0134.477.0351.7154.053.4817.0369.9633.0763,1.445.1315.1543.0175.3089.04.4634.06.5664.072,1.1329.1508,1.6995.2481.0674.0115.1347.0254.2021.0373a43.972,43.972,0,0,1,10.2766,3.2039c9.3787,4.1878,17.5358,10.2007,25.4136,16.6375a11.1715,11.1715,0,0,0,1.1541.8508c.2461.2023.4945.4012.74.604a204.5455,204.5455,0,0,0,29.8013,20.93c32.5483,18.303,64.9992,18.0711,97.394-.4148a192.9345,192.9345,0,0,0,27.3923-19.16,131.5753,131.5753,0,0,1,20.0288-14.0078q30.9174-17.1358,61.908-.1564c8.2221,4.5138,15.5568,10.2494,22.7846,16.1582a174.6045,174.6045,0,0,0,28.99,19.456c29.983,15.82,59.6887,15.0282,89.1681-1.4413a211.1839,211.1839,0,0,0,31.0181-21.7959c7.9915-6.5795,16.4162-12.4862,25.9692-16.683a50.4539,50.4539,0,0,1,18.55-4.4054c.06-.002.1206-.0077.181-.0094.48-.0158.96-.0063,1.44-.0073.48.001.9595-.0085,1.44.0073.06.0017.12.0074.1807.0094a50.453,50.453,0,0,1,18.55,4.4054c9.553,4.1968,17.9778,10.1035,25.97,16.683a211.1626,211.1626,0,0,0,31.0181,21.7959c29.4792,16.47,59.185,17.2615,89.1679,1.4413a174.6136,174.6136,0,0,0,28.99-19.456c7.2278-5.9088,14.5625-11.6444,22.7844-16.1582q31.0163-17.0274,61.908.1564a131.5555,131.5555,0,0,1,20.0288,14.0078,192.9478,192.9478,0,0,0,27.3925,19.16c32.3946,18.4859,64.8455,18.7178,97.3941.4148a204.5482,204.5482,0,0,0,29.801-20.93c.2459-.2028.4941-.4017.74-.604a11.1715,11.1715,0,0,0,1.1541-.8508c7.8779-6.4368,16.0351-12.45,25.4136-16.6375a43.9793,43.9793,0,0,1,10.2766-3.2039c.0674-.0119.1347-.0258.2021-.0373.5667-.0973,1.1331-.1761,1.6995-.2481.1545-.0194.3091-.0423.4634-.06.4817-.0552.9633-.0946,1.445-.1315.2386-.0179.4771-.04.7154-.053.4-.023.8-.0327,1.1992-.0431.32-.0079.6394-.0185.9587-.0183s.6392.01.9588.0183c.4.01.7995.02,1.1992.0431.2385.0134.4768.0351.7153.053.4817.0369.9634.0763,1.4451.1315.1543.0175.3088.04.4634.06.5664.072,1.1328.1508,1.6994.2481.0674.0115.1348.0254.2022.0373a43.9734,43.9734,0,0,1,10.2766,3.2039c9.3787,4.1878,17.5356,10.2007,25.4136,16.6375a11.1819,11.1819,0,0,0,1.154.8508c.2461.2023.4944.4012.74.604a204.55,204.55,0,0,0,29.8012,20.93c32.5484,18.303,64.9993,18.0711,97.3941-.4148a192.9516,192.9516,0,0,0,27.3923-19.16,131.56,131.56,0,0,1,20.0288-14.0078q30.9174-17.1358,61.908-.1564c8.2219,4.5138,15.5568,10.2494,22.7844,16.1582a174.6169,174.6169,0,0,0,28.99,19.456c29.9832,15.82,59.689,15.0282,89.1682-1.4413a211.1733,211.1733,0,0,0,31.0181-21.7959c7.9915-6.5795,16.4163-12.4862,25.9693-16.683a47.8485,47.8485,0,0,1,40.1792,0c9.5532,4.1968,17.9777,10.1035,25.9694,16.683a211.1626,211.1626,0,0,0,31.0181,21.7959c29.4792,16.47,59.1851,17.2615,89.168,1.4413a174.6045,174.6045,0,0,0,28.99-19.456c7.2278-5.9088,14.5625-11.6444,22.7847-16.1582q31.0158-17.0274,61.9079.1564a131.5587,131.5587,0,0,1,20.0286,14.0078,192.9487,192.9487,0,0,0,27.3926,19.16c32.3945,18.4859,64.8454,18.7178,97.394.4148a204.5671,204.5671,0,0,0,29.8013-20.93c.2456-.2028.4939-.4017.74-.604a11.2147,11.2147,0,0,0,1.1541-.8508c7.8777-6.4368,16.0349-12.45,25.4133-16.6375a43.9793,43.9793,0,0,1,10.2766-3.2039c.0677-.0119.135-.0258.2024-.0373.5664-.0973,1.1328-.1761,1.7-.2481.1543-.0194.3088-.0423.4634-.06.4816-.0552.9631-.0946,1.445-.1315.2383-.0179.4768-.04.7154-.053.4-.023.7993-.0327,1.1989-.0431.32-.0079.6394-.0185.9588-.0183s.6391.01.959.0183c.4.01.7993.02,1.1989.0431.2386.0134.4771.0351.7154.053.4817.0369.9633.0763,1.445.1315.1543.0175.3091.04.4634.06.5664.072,1.1331.1508,1.6995.2481.0674.0115.1347.0254.2024.0373a43.9727,43.9727,0,0,1,10.2763,3.2039c9.3787,4.1878,17.5359,10.2007,25.4136,16.6375a11.2039,11.2039,0,0,0,1.1541.8508c.2463.2023.4946.4012.74.604a204.5671,204.5671,0,0,0,29.8013,20.93c32.5486,18.303,64.9992,18.0711,97.394-.4148a192.9288,192.9288,0,0,0,27.3923-19.16,131.5762,131.5762,0,0,1,20.0289-14.0078q30.9177-17.1358,61.9079-.1564c8.2222,4.5138,15.5569,10.2494,22.7847,16.1582a174.6,174.6,0,0,0,28.99,19.456c29.9829,15.82,59.6887,15.0282,89.168-1.4413a211.1786,211.1786,0,0,0,31.0181-21.7959c7.9917-6.5795,16.4162-12.4862,25.9694-16.683,14.3262-6.2936,28.4512-5.79,42.4986.8249a103.0088,103.0088,0,0,1,22.5483,14.6675c2.4409,2.06,3.5947,1.8613,5.2627-.8274,3.42-5.5139,7.19-10.8122,10.84-16.1821.85-1.25,1.9346-2.2933.1241-3.7454-17.9566-14.4011-37.0552-26.1175-58.6031-26.4285-20.7436.14-36.54,7.2475-51.1186,17.4053-7.6409,5.3239-14.7954,11.3444-22.188,17.0266a140.8255,140.8255,0,0,1-20.5532,13.2317c-20.8845,10.9233-41.77,10.8643-62.7381.214-11.3625-5.7714-21.4929-13.3078-31.2668-21.3889a136.3617,136.3617,0,0,0-24.4773-16.3148c-27.156-13.977-54.0588-13.2551-80.7319,1.3572a154.1566,154.1566,0,0,0-24.1783,16.7773,154.8945,154.8945,0,0,1-28.5424,19.1911c-22.26,11.3125-44.4383,11.1322-66.6429-.1451-10.9108-5.5413-20.6738-12.7323-30.08-20.4776q-.79-.65-1.584-1.2934c-.0283-.0228-.0508-.0443-.08-.0672s-.06-.0473-.09-.0711c-10.3-8.3566-21.0957-15.9472-33.481-21.0537a66.2326,66.2326,0,0,0-11.3291-3.5439c-.0993-.0214-.1987-.0479-.2981-.0689-.7768-.1631-1.5532-.3-2.33-.4318-.23-.039-.4592-.0872-.6889-.1235-.6721-.1057-1.3443-.1867-2.0164-.2687-.33-.04-.6594-.0911-.989-.1258-.5908-.0619-1.1814-.1-1.772-.1438-.4087-.03-.8173-.0706-1.2263-.0921-.5261-.0275-1.0522-.0329-1.5784-.0458-.4711-.0117-.9423-.0325-1.4135-.0326s-.9422.0209-1.4131.0326c-.5264.0129-1.0525.0183-1.5786.0458-.4087.0215-.8174.0618-1.2261.0921-.5908.0435-1.1814.0819-1.7722.1438-.33.0346-.6592.0853-.9888.1257-.6721.0821-1.3445.1631-2.0168.2689-.2293.0362-.4583.0842-.6875.1231-.7769.1315-1.5537.2689-2.3308.4321-.0992.0209-.1985.0473-.2976.0688a66.23,66.23,0,0,0-11.33,3.544c-12.3853,5.1065-23.1807,12.6971-33.481,21.0537-.03.0238-.06.0473-.09.0711s-.0513.0444-.08.0672q-.7932.6447-1.584,1.2934c-9.406,7.7453-19.169,14.9363-30.08,20.4776-22.2046,11.2773-44.3823,11.4576-66.6426.1451a154.8986,154.8986,0,0,1-28.5425-19.1911,154.1511,154.1511,0,0,0-24.1782-16.7773c-26.6731-14.6123-53.5759-15.3342-80.7319-1.3572a136.3637,136.3637,0,0,0-24.4771,16.3148c-9.7741,8.0811-19.9045,15.6175-31.267,21.3889-20.9681,10.65-41.8536,10.7093-62.7383-.214a140.8425,140.8425,0,0,1-20.5533-13.2317c-2.8881-2.22-5.74-4.4911-8.5991-6.7527a2.4534,2.4534,0,0,0-.9414-1.2507c-17.9565-14.4011-37.0554-26.1175-58.6032-26.4285-.8733.0059-1.7254.0418-2.5813.0721-.856-.03-1.7081-.0662-2.5813-.0721-21.5477.311-40.6468,12.0274-58.6031,26.4285a2.4511,2.4511,0,0,0-.9414,1.2507c-2.8589,2.2615-5.7112,4.5327-8.5993,6.7527a140.8265,140.8265,0,0,1-20.5533,13.2317c-20.8845,10.9233-41.77,10.8643-62.738.214-11.3628-5.7714-21.4929-13.3078-31.2671-21.3889a136.3546,136.3546,0,0,0-24.4773-16.3148c-27.1558-13.977-54.0586-13.2551-80.7319,1.3572a154.1634,154.1634,0,0,0-24.178,16.7773,154.9,154.9,0,0,1-28.5427,19.1911c-22.26,11.3125-44.438,11.1322-66.6426-.1451-10.9109-5.5413-20.6741-12.7323-30.08-20.4776q-.79-.65-1.5843-1.2934c-.028-.0228-.0505-.0443-.0793-.0672l-.09-.0711c-10.3-8.3566-21.0955-15.9472-33.4807-21.0537A66.23,66.23,0,0,0,2568.71,75.39c-.0991-.0214-.1987-.0479-.2981-.0689-.7766-.1631-1.5529-.3-2.3293-.4318-.23-.039-.4592-.0872-.689-.1235-.6721-.1057-1.3442-.1867-2.0163-.2687-.33-.04-.6594-.0911-.9893-.1258-.5906-.0619-1.1814-.1-1.7717-.1438-.4089-.03-.8176-.0706-1.2263-.0921-.5262-.0275-1.0525-.0329-1.5786-.0458-.471-.0117-.9422-.0325-1.4134-.0326s-.9421.0209-1.4133.0326c-.5261.0129-1.0522.0183-1.5784.0458-.4089.0215-.8176.0618-1.2263.0921-.5906.0435-1.1814.0819-1.772.1438-.33.0346-.6591.0853-.9887.1257-.6724.0821-1.3448.1631-2.0171.2689-.229.0362-.4583.0842-.6873.1231-.7768.1315-1.5537.2689-2.3308.4321-.0991.0209-.1985.0473-.2976.0688a66.2429,66.2429,0,0,0-11.33,3.544c-12.3853,5.1065-23.18,12.6971-33.4807,21.0537-.03.0238-.06.0473-.09.0711s-.0513.0444-.08.0672q-.7935.6447-1.5842,1.2934c-9.4058,7.7453-19.1687,14.9363-30.08,20.4776-22.2046,11.2773-44.3824,11.4576-66.6426.1451a154.8986,154.8986,0,0,1-28.5425-19.1911A154.1557,154.1557,0,0,0,2348.08,86.0732c-26.6731-14.6123-53.5762-15.3342-80.732-1.3572a136.3645,136.3645,0,0,0-24.4772,16.3148c-9.774,8.0811-19.9043,15.6175-31.2671,21.3889-20.9678,10.65-41.8533,10.7093-62.7381-.214a140.8255,140.8255,0,0,1-20.5532-13.2317c-2.9626-2.2772-5.8877-4.6079-8.82-6.9272a2.6976,2.6976,0,0,0-.8823-1.0762c-17.9566-14.4011-37.0555-26.1175-58.6033-26.4285-.8457.0058-1.6707.0412-2.5.07-.83-.0286-1.6542-.064-2.5-.07-21.5478.311-40.6467,12.0274-58.603,26.4285a2.6958,2.6958,0,0,0-.8823,1.0762c-2.9329,2.3192-5.858,4.65-8.8206,6.9272a140.8255,140.8255,0,0,1-20.5532,13.2317c-20.8845,10.9233-41.77,10.8643-62.7381.214-11.3628-5.7714-21.493-13.3078-31.2671-21.3889a136.3566,136.3566,0,0,0-24.4771-16.3148c-27.1559-13.977-54.0589-13.2551-80.732,1.3572a154.1642,154.1642,0,0,0-24.1781,16.7773,154.8994,154.8994,0,0,1-28.5426,19.1911c-22.26,11.3125-44.4381,11.1322-66.6427-.1451-10.9109-5.5413-20.674-12.7323-30.08-20.4776q-.79-.65-1.5841-1.2934c-.0282-.0228-.0507-.0443-.08-.0672l-.09-.0711c-10.3-8.3566-21.0956-15.9472-33.4809-21.0537a66.2309,66.2309,0,0,0-11.3292-3.5439c-.0994-.0214-.1987-.0479-.2982-.0689-.7766-.1631-1.553-.3-2.3295-.4318-.23-.039-.4591-.0872-.6888-.1235-.6721-.1057-1.3443-.1867-2.0164-.2687-.33-.04-.6594-.0911-.9892-.1258-.5906-.0619-1.1813-.1-1.7719-.1438-.4088-.03-.8175-.0706-1.2262-.0921-.5262-.0275-1.0524-.0329-1.5786-.0458-.4711-.0117-.9421-.0325-1.4133-.0326s-.9422.0209-1.4134.0326c-.5261.0129-1.0522.0183-1.5784.0458-.4089.0215-.8176.0618-1.2262.0921-.5906.0435-1.1813.0819-1.772.1438-.33.0346-.6592.0853-.9888.1257-.6724.0821-1.3447.1631-2.0171.2689-.229.0362-.4581.0842-.6872.1231-.7769.1315-1.5537.2689-2.3308.4321-.0992.0209-.1985.0473-.2977.0688a66.2429,66.2429,0,0,0-11.33,3.544c-12.3852,5.1065-23.18,12.6971-33.4807,21.0537l-.09.0711c-.0289.0229-.0512.0444-.0794.0672q-.7937.6447-1.5843,1.2934c-9.4057,7.7453-19.1688,14.9363-30.08,20.4776-22.2046,11.2773-44.3823,11.4576-66.6426.1451a154.9027,154.9027,0,0,1-28.5426-19.1911,154.1456,154.1456,0,0,0-24.1781-16.7773c-26.6731-14.6123-53.576-15.3342-80.7319-1.3572a136.3582,136.3582,0,0,0-24.4773,16.3148c-9.7739,8.0811-19.9043,15.6175-31.2671,21.3889-20.9678,10.65-41.8533,10.7093-62.738-.214a140.8265,140.8265,0,0,1-20.5533-13.2317c-2.8881-2.22-5.74-4.4911-8.5991-6.7527a2.4531,2.4531,0,0,0-.9415-1.2507c-17.9564-14.4011-37.0553-26.1175-58.6032-26.4285-.8732.0059-1.7253.0418-2.5813.0721-.8559-.03-1.708-.0662-2.5813-.0721-21.5478.311-40.6466,12.0274-58.603,26.4285a2.4525,2.4525,0,0,0-.9415,1.2507c-2.8588,2.2615-5.711,4.5327-8.5992,6.7527a140.8318,140.8318,0,0,1-20.5533,13.2317c-20.8846,10.9233-41.77,10.8643-62.7381.214-11.3627-5.7714-21.493-13.3078-31.267-21.3889A136.3609,136.3609,0,0,0,850.041,84.716c-27.156-13.977-54.0589-13.2551-80.732,1.3572a154.16,154.16,0,0,0-24.1781,16.7773,154.8994,154.8994,0,0,1-28.5426,19.1911c-22.26,11.3125-44.438,11.1322-66.6427-.1451-10.9109-5.5413-20.674-12.7323-30.08-20.4776q-.79-.65-1.5841-1.2934c-.0283-.0228-.0507-.0443-.08-.0672l-.09-.0711c-10.3-8.3566-21.0956-15.9472-33.4809-21.0537A66.2364,66.2364,0,0,0,573.3022,75.39c-.0994-.0214-.1987-.0479-.2982-.0689-.7766-.1631-1.5531-.3-2.33-.4318-.23-.039-.4592-.0872-.6888-.1235-.6722-.1057-1.3443-.1867-2.0164-.2687-.33-.04-.6594-.0911-.9892-.1258-.5907-.0619-1.1813-.1-1.7719-.1438-.4087-.03-.8174-.0706-1.2262-.0921-.5262-.0275-1.0524-.0329-1.5785-.0458-.4712-.0117-.9422-.0325-1.4134-.0326s-.9422.0209-1.4133.0326c-.5262.0129-1.0523.0183-1.5786.0458-.4087.0215-.8174.0618-1.2261.0921-.5906.0435-1.1813.0819-1.772.1438-.33.0346-.6592.0853-.9888.1257-.6723.0821-1.3447.1631-2.017.2689-.2292.0362-.4582.0842-.6873.1231-.7769.1315-1.5538.2689-2.3309.4321-.0991.0209-.1984.0473-.2976.0688a66.2392,66.2392,0,0,0-11.33,3.544c-12.3853,5.1065-23.1806,12.6971-33.4809,21.0537l-.09.0711c-.0288.0229-.0512.0444-.0795.0672q-.7934.6447-1.5841,1.2934c-9.4058,7.7453-19.1689,14.9363-30.08,20.4776-22.2047,11.2773-44.3824,11.4576-66.6427.1451a154.8994,154.8994,0,0,1-28.5426-19.1911,154.15,154.15,0,0,0-24.1781-16.7773c-26.6731-14.6123-53.576-15.3342-80.732-1.3572a136.3645,136.3645,0,0,0-24.4772,16.3148c-9.7739,8.0811-19.9043,15.6175-31.267,21.3889-20.9679,10.65-41.8534,10.7093-62.7381-.214a140.8318,140.8318,0,0,1-20.5533-13.2317c-7.3924-5.6822-14.547-11.7027-22.1879-17.0266C96.1365,81.79,80.3407,74.6823,59.5972,74.5421,38.05,74.8531,18.9506,86.57.9942,100.9706c-1.8108,1.4521-.7259,2.4955.1239,3.7454C4.7688,110.0859,8.5379,115.3842,11.9583,120.8981Z"/><path class="a" d="M12.01,46.9078c1.7691,2.8909,3.0366,2.5484,5.2889.6307a111.4082,111.4082,0,0,1,18.099-12.41c17.393-9.6916,34.831-9.9579,52.3789-.3849a133.4014,133.4014,0,0,1,20.9368,14.4447,228.3069,228.3069,0,0,0,19.5456,14.72c17.2477,11.3668,35.6287,19.4544,56.748,19.6294a79.1939,79.1939,0,0,0,16.3724-1.6853c21.6334-4.523,39.6311-16.022,56.4984-29.6247A173.5472,173.5472,0,0,1,277.225,38.104q33.7711-20.283,67.5276-.0171a132.7774,132.7774,0,0,1,16.2483,11.5968,190.0426,190.0426,0,0,0,31.6256,21.7757c28.6759,15.32,57.7054,16.6627,87.2087,2.3558,13.7072-6.647,25.9023-15.492,37.5855-25.14a10.143,10.143,0,0,0,1.1836-.8664c7.9861-6.5759,16.2946-12.68,25.854-16.8644a43.153,43.153,0,0,1,10.45-3.1293l.0239-.0034q.999-.16,1.9978-.2669c.1526-.0162.3052-.0253.4579-.04.5238-.05,1.0476-.0948,1.5714-.1232.2773-.0147.5546-.0178.8319-.0265.4-.0129.7992-.0276,1.1987-.0278s.7992.0149,1.1988.0278c.2773.0087.5545.0118.8318.0265.5236.0284,1.0472.073,1.5709.1231.1529.0144.3057.0237.4585.04q.9988.1077,1.9977.2668l.0239.0034a43.153,43.153,0,0,1,10.45,3.1293c9.5594,4.1843,17.8679,10.2885,25.854,16.8644a10.1372,10.1372,0,0,0,1.1838.8665c11.683,9.6481,23.8782,18.493,37.5853,25.14,29.5033,14.3069,58.5327,12.9642,87.2087-2.3558a190.0426,190.0426,0,0,0,31.6256-21.7757,132.7851,132.7851,0,0,1,16.2483-11.5968q33.7812-20.355,67.5276.0171a173.5577,173.5577,0,0,1,19.3476,14.1234C880.97,65.83,898.9678,77.3291,920.6011,81.8521a79.1932,79.1932,0,0,0,16.3724,1.6853c21.1193-.175,39.5-8.2626,56.7479-19.6294a228.3084,228.3084,0,0,0,19.5457-14.72,133.406,133.406,0,0,1,20.9368-14.4447,50.1393,50.1393,0,0,1,51.1955,0,133.4115,133.4115,0,0,1,20.9369,14.4447,228.3054,228.3054,0,0,0,19.5455,14.72c17.2477,11.3668,35.6287,19.4544,56.748,19.6294a79.1939,79.1939,0,0,0,16.3724-1.6853c21.6334-4.523,39.6311-16.022,56.4984-29.6247a173.5484,173.5484,0,0,1,19.3476-14.1234q33.771-20.283,67.5275-.0171a132.7928,132.7928,0,0,1,16.2483,11.5968A190.0426,190.0426,0,0,0,1390.25,71.4594c28.6759,15.32,57.7054,16.6627,87.2088,2.3558,13.707-6.647,25.9022-15.492,37.5854-25.14a10.143,10.143,0,0,0,1.1836-.8664c7.9861-6.5759,16.2946-12.68,25.854-16.8644a43.1543,43.1543,0,0,1,10.45-3.1293l.024-.0034q.999-.16,1.9978-.2669c.1525-.0162.3051-.0253.4577-.04.5239-.05,1.0478-.0948,1.5716-.1232.2772-.0147.5544-.0178.8317-.0265.4-.0129.7994-.0276,1.1988-.0278s.7992.0149,1.1987.0278c.2773.0087.5547.0118.8319.0265.5236.0284,1.0473.073,1.5709.1231.1529.0144.3057.0237.4585.04q.9987.1077,1.9977.2668l.0239.0034a43.1517,43.1517,0,0,1,10.45,3.1293c9.56,4.1843,17.8678,10.2885,25.8539,16.8644a10.146,10.146,0,0,0,1.1839.8665c11.6831,9.6481,23.8781,18.493,37.5853,25.14,29.5033,14.3069,58.5328,12.9642,87.2086-2.3558a190.0435,190.0435,0,0,0,31.6257-21.7757,132.7774,132.7774,0,0,1,16.2483-11.5968q33.7812-20.355,67.5276.0171a173.5681,173.5681,0,0,1,19.3477,14.1234c16.8672,13.6027,34.865,25.1017,56.4983,29.6247a79.1916,79.1916,0,0,0,16.3723,1.6853c21.1194-.175,39.5-8.2626,56.748-19.6294a228.34,228.34,0,0,0,19.5457-14.72,133.4,133.4,0,0,1,20.9367-14.4447,53.8855,53.8855,0,0,1,24.595-7.0181l.03-.0008c.3515-.0088.7028-.0074,1.0541-.0084.3516.001.7029,0,1.0542.0084l.03.0008a53.8843,53.8843,0,0,1,24.595,7.0181,133.4031,133.4031,0,0,1,20.937,14.4447,228.32,228.32,0,0,0,19.5454,14.72c17.2478,11.3668,35.6289,19.4544,56.748,19.6294a79.1966,79.1966,0,0,0,16.3726-1.6853c21.6333-4.523,39.6308-16.022,56.4983-29.6247a173.5461,173.5461,0,0,1,19.3474-14.1234q33.7713-20.283,67.5278-.0171a132.7906,132.7906,0,0,1,16.2481,11.5968,190.0517,190.0517,0,0,0,31.6257,21.7757c28.676,15.32,57.7053,16.6627,87.2087,2.3558,13.7071-6.647,25.9024-15.492,37.5855-25.14a10.1515,10.1515,0,0,0,1.1836-.8664c7.9861-6.5759,16.2944-12.68,25.854-16.8644a43.1556,43.1556,0,0,1,10.45-3.1293l.0239-.0034q.999-.16,1.9978-.2669c.1526-.0162.3052-.0253.4578-.04.5239-.05,1.0478-.0948,1.5715-.1232.2771-.0147.5545-.0178.8318-.0265.4-.0129.7993-.0276,1.1987-.0278s.7993.0149,1.1988.0278c.2773.0087.5546.0118.832.0265.5234.0284,1.0471.073,1.5708.1231.1528.0144.3057.0237.4585.04q.9987.1077,1.9975.2668l.024.0034a43.15,43.15,0,0,1,10.45,3.1293c9.5595,4.1843,17.8679,10.2885,25.854,16.8644a10.1288,10.1288,0,0,0,1.1838.8665c11.6831,9.6481,23.8782,18.493,37.5852,25.14,29.5034,14.3069,58.533,12.9642,87.2088-2.3558a190.0435,190.0435,0,0,0,31.6257-21.7757,132.7774,132.7774,0,0,1,16.2483-11.5968q33.781-20.355,67.5276.0171a173.5577,173.5577,0,0,1,19.3476,14.1234c16.8672,13.6027,34.865,25.1017,56.4983,29.6247a79.1923,79.1923,0,0,0,16.3723,1.6853c21.1194-.175,39.5005-8.2626,56.7481-19.6294a228.3226,228.3226,0,0,0,19.5456-14.72,133.4014,133.4014,0,0,1,20.9368-14.4447,50.14,50.14,0,0,1,51.1956,0,133.4145,133.4145,0,0,1,20.9367,14.4447,228.2771,228.2771,0,0,0,19.5457,14.72c17.2475,11.3668,35.6286,19.4544,56.7478,19.6294a79.1942,79.1942,0,0,0,16.3725-1.6853c21.6333-4.523,39.6311-16.022,56.4983-29.6247a173.54,173.54,0,0,1,19.3477-14.1234q33.7708-20.283,67.5276-.0171a132.7928,132.7928,0,0,1,16.2483,11.5968,190.0369,190.0369,0,0,0,31.6254,21.7757c28.6761,15.32,57.7054,16.6627,87.2088,2.3558,13.707-6.647,25.9023-15.492,37.5854-25.14a10.143,10.143,0,0,0,1.1836-.8664c7.9861-6.5759,16.2947-12.68,25.854-16.8644a43.1569,43.1569,0,0,1,10.45-3.1293l.024-.0034q.999-.16,1.9978-.2669c.1525-.0162.3051-.0253.4577-.04.5239-.05,1.0479-.0948,1.5716-.1232.2773-.0147.5544-.0178.8317-.0265.4-.0129.7994-.0276,1.1988-.0278s.7993.0149,1.1987.0278c.2773.0087.5547.0118.832.0265.5235.0284,1.0472.073,1.5708.1231.1529.0144.3057.0237.4585.04q.999.1077,1.9978.2668l.024.0034a43.1569,43.1569,0,0,1,10.45,3.1293c9.5593,4.1843,17.8679,10.2885,25.8537,16.8644a10.1552,10.1552,0,0,0,1.1841.8665c11.6829,9.6481,23.8779,18.493,37.5852,25.14,29.5032,14.3069,58.5327,12.9642,87.2087-2.3558a190.0336,190.0336,0,0,0,31.6255-21.7757,132.8,132.8,0,0,1,16.2483-11.5968q33.7812-20.355,67.5276.0171a173.5588,173.5588,0,0,1,19.3477,14.1234c16.8672,13.6027,34.865,25.1017,56.4983,29.6247a79.1923,79.1923,0,0,0,16.3723,1.6853c21.1194-.175,39.5-8.2626,56.748-19.6294a228.2771,228.2771,0,0,0,19.5457-14.72,133.41,133.41,0,0,1,20.9367-14.4447c17.5479-9.573,34.9859-9.3067,52.3789.3849a111.4142,111.4142,0,0,1,18.0992,12.41c2.2524,1.9177,3.5195,2.26,5.289-.6307,3.3858-5.533,7.1519-10.8361,10.8306-16.1861,1.0571-1.5376,1.6372-2.7271-.2105-4.19C4095.5888,12.25,4076.5463.3878,4052.3978.51c-14.2329.0719-27.0859,4.7862-39.2773,11.7008-9.0181,5.1147-17.1606,11.449-25.1309,18.0333a159.2933,159.2933,0,0,1-24.677,16.9277c-21.8772,12.0306-43.7834,12.1208-65.8264.4538a158.6161,158.6161,0,0,1-26.8218-18.1931A164.7442,164.7442,0,0,0,3847.4716,12.98c-29.9224-17.0706-59.5923-16.4062-89.0425,1.2139a172.69,172.69,0,0,0-21.0422,15.1852,152.0677,152.0677,0,0,1-27.7647,18.56c-22.2556,11.3042-44.437,11.1446-66.6313-.146a148.5365,148.5365,0,0,1-26.962-17.9679c-3.3586-2.7633-6.7522-5.4727-10.2072-8.0917-.4981-.3788-.9927-.7631-1.4939-1.1372-.1453-.1082-.2935-.2127-.4392-.3206q-1.6974-1.26-3.4207-2.4794c-.3191-.2257-.6433-.4443-.9639-.6679q-1.404-.9782-2.8261-1.9288c-.5074-.338-1.0205-.6678-1.5323-1q-1.1143-.7215-2.2419-1.4237-.9946-.6191-2.0027-1.22c-.5845-.3484-1.1736-.69-1.7639-1.0288-.8052-.4636-1.613-.9231-2.4307-1.369-.415-.2256-.8364-.4414-1.2544-.6622-.768-.4066-1.5256-.8278-2.3056-1.2174-1.3736-.686-2.7466-1.31-4.12-1.8994-.2294-.0988-.4589-.1843-.6884-.28-.9444-.3943-1.8887-.7785-2.8328-1.1269-.3967-.1469-.7932-.2728-1.19-.4115-.7847-.2735-1.5694-.5482-2.3538-.79-.5046-.156-1.0093-.2873-1.5137-.43-.6831-.1929-1.3662-.3918-2.049-.5607-.5684-.1407-1.1365-.255-1.7046-.3791-.6253-.1363-1.25-.28-1.8755-.3966-.6-.1115-1.2-.1959-1.8-.2889-.5971-.0924-1.1943-.1936-1.7915-.2677-.6094-.0756-1.2187-.1239-1.8281-.18-.5913-.0548-1.1826-.1182-1.7739-.1549-.6045-.0376-1.209-.0479-1.8133-.0666C3555.2157.0269,3554.6185,0,3554.0214,0s-1.1939.0269-1.791.0453c-.6045.0187-1.2088.029-1.8133.0666-.5915.0367-1.1828.1-1.7741.1549-.6094.0565-1.2188.1047-1.8282.18-.5966.0741-1.1938.1752-1.7905.2676-.6.093-1.2.1774-1.8.289-.625.1162-1.25.26-1.8748.3966-.5683.1241-1.1365.2384-1.7051.3791-.6831.1689-1.3662.3678-2.049.5607-.5047.1427-1.0091.274-1.5135.43-.7851.242-1.57.5168-2.3552.7905-.396.1385-.7922.2644-1.1882.411-.9448.3485-1.89.7329-2.8343,1.1273-.2292.096-.4582.1813-.6872.28-1.3731.5894-2.7463,1.2134-4.12,1.8995-.7808.39-1.5389.8113-2.3074,1.2181-.4172.2205-.8381.4359-1.2522.6611-.8181.4461-1.6265.9059-2.4319,1.37-.59.339-1.1789.68-1.7632,1.0284q-1.0074.6024-2.0041,1.2206-1.1268.6993-2.2386,1.4216c-.5129.3326-1.0271.6632-1.5356,1.0019q-1.4245.9475-2.8267,1.9292c-.32.2228-.6428.4409-.9611.6659q-1.7249,1.22-3.4226,2.4808c-.1453.1077-.2933.2119-.4383.32-.5012.3741-.9958.7584-1.4939,1.1372-3.4553,2.619-6.8486,5.3284-10.2072,8.0917a148.5469,148.5469,0,0,1-26.962,17.9679c-22.1943,11.2906-44.3757,11.45-66.6313.146a152.0643,152.0643,0,0,1-27.7647-18.56,172.7153,172.7153,0,0,0-21.0424-15.1852c-29.45-17.62-59.12-18.2845-89.0425-1.2139a164.7539,164.7539,0,0,0-23.1926,16.4524,158.6225,158.6225,0,0,1-26.8216,18.1931c-22.0432,11.667-43.95,11.5768-65.8266-.4538a159.31,159.31,0,0,1-24.6773-16.9277q-1.4949-1.235-2.999-2.4562a3.3,3.3,0,0,0-1.0549-1.256c-17.0545-13.506-35.0147-24.8424-57.34-25.9308-.3035-.0156-.6084-.0264-.9136-.0378q-.7446-.0268-1.4961-.0379c-.2022-.003-.4019-.0143-.6047-.0154-.146-.0007-.29.0044-.4353.0046s-.2891-.0053-.4354-.0046c-.2028.0011-.4025.0124-.6047.0154q-.7515.0114-1.4961.0379c-.3049.0114-.61.0222-.9133.0378-22.325,1.0884-40.2849,12.4247-57.34,25.9308a3.3,3.3,0,0,0-1.0546,1.256q-1.5052,1.22-2.9993,2.4562a159.3124,159.3124,0,0,1-24.677,16.9277c-21.8772,12.0306-43.7837,12.1208-65.8267.4538a158.6217,158.6217,0,0,1-26.8215-18.1931A164.7394,164.7394,0,0,0,2849.8485,12.98c-29.9223-17.0706-59.5925-16.4062-89.0425,1.2139a172.6977,172.6977,0,0,0-21.0422,15.1852,152.0738,152.0738,0,0,1-27.7646,18.56c-22.2557,11.3042-44.4373,11.1446-66.6314-.146a148.5357,148.5357,0,0,1-26.9619-17.9679c-3.3589-2.7633-6.7522-5.4727-10.2075-8.0917-.4978-.3788-.9925-.7631-1.4937-1.1372-.1455-.1082-.2934-.2127-.4392-.3206q-1.6974-1.26-3.4209-2.4794c-.3191-.2257-.643-.4443-.9639-.6679q-1.4035-.9782-2.8259-1.9288c-.5075-.338-1.0205-.6678-1.5322-1q-1.1143-.7215-2.2419-1.4237-.9951-.6191-2.003-1.22c-.5842-.3484-1.1733-.69-1.7636-1.0288-.8052-.4636-1.6131-.9231-2.4307-1.369-.4151-.2256-.8364-.4414-1.2544-.6622-.7681-.4066-1.5259-.8278-2.3059-1.2174-1.3733-.686-2.7466-1.31-4.12-1.8994-.2293-.0988-.4588-.1843-.6883-.28-.9443-.3943-1.8886-.7785-2.8327-1.1269-.3968-.1469-.7935-.2728-1.19-.4115-.7847-.2735-1.5693-.5482-2.354-.79-.5046-.156-1.009-.2873-1.5134-.43-.6831-.1929-1.3662-.3918-2.0493-.5607-.5681-.1407-1.1363-.255-1.7046-.3791-.625-.1363-1.25-.28-1.8753-.3966-.6-.1115-1.2-.1959-1.8-.2889-.5969-.0924-1.1941-.1936-1.7912-.2677-.6094-.0756-1.2188-.1239-1.8282-.18-.5913-.0548-1.1826-.1182-1.7739-.1549-.6045-.0376-1.209-.0479-1.8135-.0666-.5969-.0184-1.1938-.0452-1.791-.0453s-1.1941.0269-1.791.0453c-.6045.0187-1.209.029-1.8135.0666-.5913.0367-1.1826.1-1.7739.1549-.6094.0565-1.2187.1047-1.8281.18-.5969.0741-1.1939.1752-1.7908.2676-.6.093-1.2.1774-1.8.289-.625.1162-1.25.26-1.8747.3966-.5684.1241-1.1368.2384-1.7051.3791-.6831.1689-1.3662.3678-2.0493.5607-.5044.1427-1.0088.274-1.5135.43-.7849.242-1.57.5168-2.3549.7905-.3963.1385-.7923.2644-1.1885.411-.9446.3485-1.8894.7329-2.8342,1.1273-.229.096-.4581.1813-.6871.28-1.3732.5894-2.7463,1.2134-4.12,1.8995-.78.39-1.5386.8113-2.3072,1.2181-.4174.2205-.8381.4359-1.2522.6611-.8181.4461-1.6264.9059-2.4321,1.37-.59.339-1.1787.68-1.7629,1.0284q-1.0079.6024-2.0042,1.2206-1.1268.6993-2.2387,1.4216c-.5127.3326-1.0269.6632-1.5354,1.0019q-1.425.9475-2.8267,1.9292c-.32.2228-.6428.4409-.9612.6659q-1.7249,1.22-3.4226,2.4808c-.1455.1077-.2932.2119-.4385.32-.5009.3741-.9956.7584-1.4936,1.1372-3.4553,2.619-6.8487,5.3284-10.2073,8.0917a148.5427,148.5427,0,0,1-26.9619,17.9679c-22.1943,11.2906-44.3757,11.45-66.6314.146a152.0567,152.0567,0,0,1-27.7646-18.56,172.7164,172.7164,0,0,0-21.0425-15.1852c-29.45-17.62-59.12-18.2845-89.0425-1.2139a164.7539,164.7539,0,0,0-23.1926,16.4524,158.6321,158.6321,0,0,1-26.8218,18.1931c-22.0429,11.667-43.9494,11.5768-65.8264-.4538A159.3094,159.3094,0,0,1,2122.43,30.2437q-1.6245-1.3419-3.2613-2.6661a3.6666,3.6666,0,0,0-.9548-1.0461C2101.8449,13.5682,2084.6434,2.5992,2063.5473.776c-.51-.0458-1.0235-.0771-1.5364-.1111-.2334-.0152-.4656-.0332-.7-.0461-.5332-.03-1.0693-.05-1.6064-.0665q-.4812-.0156-.9651-.0245c-.24-.0038-.4768-.0169-.7173-.0182-.1731-.0008-.3435.005-.5164.0054s-.343-.0062-.5163-.0054c-.24.0013-.4775.0144-.7173.0182q-.4838.0093-.9651.0245c-.5371.0166-1.073.0369-1.6062.0665-.2346.0129-.4668.0309-.7.0461-.513.034-1.0266.0654-1.5362.1111-21.0961,1.8232-38.2973,12.7922-54.6667,25.7555a3.674,3.674,0,0,0-.9548,1.0461q-1.6366,1.3243-3.2613,2.6661a159.3029,159.3029,0,0,1-24.677,16.9277c-21.8772,12.0306-43.7837,12.1208-65.8266.4538a158.6273,158.6273,0,0,1-26.8217-18.1931A164.7433,164.7433,0,0,0,1852.0634,12.98c-29.9224-17.0706-59.5926-16.4062-89.0425,1.2139a172.69,172.69,0,0,0-21.0422,15.1852,152.0745,152.0745,0,0,1-27.7647,18.56c-22.2557,11.3042-44.4371,11.1446-66.6313-.146a148.5365,148.5365,0,0,1-26.962-17.9679c-3.3588-2.7633-6.7522-5.4727-10.2075-8.0917-.4979-.3788-.9925-.7631-1.4936-1.1372-.1455-.1082-.2935-.2127-.4392-.3206q-1.6974-1.26-3.4208-2.4794c-.3192-.2257-.6432-.4443-.9639-.6679q-1.4039-.9782-2.826-1.9288c-.5075-.338-1.0205-.6678-1.5323-1q-1.1145-.7215-2.2419-1.4237-.9949-.6191-2.0028-1.22c-.5844-.3484-1.1735-.69-1.7638-1.0288-.8052-.4636-1.613-.9231-2.4308-1.369-.4149-.2256-.8363-.4414-1.2543-.6622-.768-.4066-1.5257-.8278-2.3059-1.2174-1.3733-.686-2.7466-1.31-4.12-1.8994-.2294-.0988-.4587-.1843-.6882-.28-.9444-.3943-1.8887-.7785-2.8328-1.1269-.3967-.1469-.7935-.2728-1.19-.4115-.7847-.2735-1.5694-.5482-2.354-.79-.5046-.156-1.0091-.2873-1.5135-.43-.6831-.1929-1.3662-.3918-2.0492-.5607-.5682-.1407-1.1363-.255-1.7046-.3791-.6251-.1363-1.25-.28-1.8753-.3966-.6-.1115-1.2-.1959-1.8-.2889-.5971-.0924-1.1941-.1936-1.7913-.2677-.6094-.0756-1.2187-.1239-1.8281-.18-.5913-.0548-1.1826-.1182-1.7739-.1549-.6045-.0376-1.209-.0479-1.8134-.0666C1559.8073.0269,1559.21,0,1558.6132,0s-1.1941.0269-1.791.0453c-.6045.0187-1.2089.029-1.8134.0666-.5914.0367-1.1827.1-1.7742.1549-.6092.0565-1.2186.1047-1.828.18-.5969.0741-1.1938.1752-1.7907.2676-.6.093-1.2.1774-1.8.289-.625.1162-1.25.26-1.8748.3966-.5684.1241-1.1366.2384-1.7051.3791-.6831.1689-1.3662.3678-2.0492.5607-.5045.1427-1.0089.274-1.5135.43-.7849.242-1.57.5168-2.355.7905-.3961.1385-.7922.2644-1.1885.411-.9446.3485-1.8894.7329-2.8341,1.1273-.2291.096-.4581.1813-.6872.28-1.3732.5894-2.7462,1.2134-4.12,1.8995-.78.39-1.5386.8113-2.3071,1.2181-.4175.2205-.8381.4359-1.2522.6611-.8181.4461-1.6265.9059-2.432,1.37-.59.339-1.179.68-1.7631,1.0284q-1.0078.6024-2.0041,1.2206-1.1268.6993-2.2387,1.4216c-.5128.3326-1.0271.6632-1.5355,1.0019q-1.4247.9475-2.8267,1.9292c-.32.2228-.6428.4409-.9611.6659q-1.7248,1.22-3.4226,2.4808c-.1456.1077-.2933.2119-.4385.32-.501.3741-.9956.7584-1.4937,1.1372-3.4553,2.619-6.8486,5.3284-10.2074,8.0917a148.5392,148.5392,0,0,1-26.9619,17.9679c-22.1942,11.2906-44.3756,11.45-66.6313.146a152.06,152.06,0,0,1-27.7646-18.56,172.7153,172.7153,0,0,0-21.0424-15.1852c-29.45-17.62-59.12-18.2845-89.0425-1.2139A164.7549,164.7549,0,0,0,1241.97,29.4321a158.6273,158.6273,0,0,1-26.8217,18.1931c-22.043,11.667-43.9495,11.5768-65.8266-.4538a159.3133,159.3133,0,0,1-24.6771-16.9277q-1.4949-1.235-2.999-2.4562a3.3,3.3,0,0,0-1.0549-1.256c-17.0547-13.506-35.0147-24.8424-57.34-25.9308-.3036-.0156-.6087-.0264-.9136-.0378q-.7446-.0268-1.4961-.0379c-.2022-.003-.4019-.0143-.6047-.0154-.146-.0007-.29.0044-.4354.0046s-.2893-.0053-.4353-.0046c-.2028.0011-.4025.0124-.6047.0154q-.7515.0114-1.4962.0379c-.3048.0114-.61.0222-.9133.0378-22.325,1.0884-40.285,12.4247-57.34,25.9308a3.3,3.3,0,0,0-1.0548,1.256q-1.505,1.22-2.9991,2.4562a159.3133,159.3133,0,0,1-24.6771,16.9277c-21.8772,12.0306-43.7836,12.1208-65.8266.4538A158.6233,158.6233,0,0,1,877.633,29.4321,164.7433,164.7433,0,0,0,854.44,12.98c-29.9225-17.0706-59.5925-16.4062-89.0425,1.2139a172.7065,172.7065,0,0,0-21.0423,15.1852,152.0643,152.0643,0,0,1-27.7647,18.56c-22.2556,11.3042-44.437,11.1446-66.6313-.146a148.5392,148.5392,0,0,1-26.9619-17.9679c-3.3588-2.7633-6.7522-5.4727-10.2074-8.0917-.498-.3788-.9926-.7631-1.4937-1.1372-.1455-.1082-.2936-.2127-.4392-.3206q-1.6974-1.26-3.4208-2.4794c-.3192-.2257-.6432-.4443-.9639-.6679q-1.404-.9782-2.8261-1.9288c-.5074-.338-1.02-.6678-1.5322-1q-1.1145-.7215-2.2419-1.4237-.9949-.6191-2.0028-1.22c-.5844-.3484-1.1734-.69-1.7639-1.0288-.8051-.4636-1.613-.9231-2.4307-1.369-.4149-.2256-.8362-.4414-1.2543-.6622-.768-.4066-1.5257-.8278-2.3058-1.2174-1.3734-.686-2.7466-1.31-4.12-1.8994-.23-.0988-.4588-.1843-.6883-.28-.9443-.3943-1.8887-.7785-2.8329-1.1269-.3967-.1469-.7933-.2728-1.19-.4115-.7847-.2735-1.5693-.5482-2.3539-.79-.5046-.156-1.009-.2873-1.5135-.43-.683-.1929-1.3661-.3918-2.0492-.5607-.5682-.1407-1.1364-.255-1.7046-.3791-.6251-.1363-1.25-.28-1.8754-.3966-.6-.1115-1.2-.1959-1.8-.2889-.5971-.0924-1.1941-.1936-1.7912-.2677-.6095-.0756-1.2189-.1239-1.8283-.18-.5912-.0548-1.1825-.1182-1.7738-.1549-.6045-.0376-1.209-.0479-1.8134-.0666C562.1842.0269,561.5872,0,560.99,0s-1.1941.0269-1.7911.0453c-.6044.0187-1.2088.029-1.8133.0666-.5914.0367-1.1828.1-1.7742.1549-.6092.0565-1.2185.1047-1.8279.18-.5969.0741-1.1939.1752-1.7908.2676-.6.093-1.2.1774-1.8.289-.6249.1162-1.25.26-1.8747.3966-.5683.1241-1.1366.2384-1.7051.3791-.6831.1689-1.3661.3678-2.0492.5607-.5044.1427-1.0089.274-1.5135.43-.7849.242-1.57.5168-2.355.7905-.3961.1385-.7922.2644-1.1884.411-.9447.3485-1.8894.7329-2.8342,1.1273-.2291.096-.4581.1813-.6872.28-1.3731.5894-2.7463,1.2134-4.12,1.8995-.7805.39-1.5387.8113-2.3072,1.2181-.4174.2205-.8382.4359-1.2523.6611-.818.4461-1.6264.9059-2.4319,1.37-.59.339-1.179.68-1.7631,1.0284q-1.0077.6024-2.0042,1.2206-1.1268.6993-2.2386,1.4216c-.5128.3326-1.0271.6632-1.5356,1.0019q-1.4245.9475-2.8266,1.9292c-.32.2228-.6429.4409-.9611.6659q-1.7248,1.22-3.4227,2.4808c-.1454.1077-.2932.2119-.4384.32-.5011.3741-.9957.7584-1.4937,1.1372-3.4552,2.619-6.8486,5.3284-10.2074,8.0917a148.5392,148.5392,0,0,1-26.9619,17.9679c-22.1943,11.2906-44.3757,11.45-66.6313.146a152.0635,152.0635,0,0,1-27.7646-18.56,172.7009,172.7009,0,0,0-21.0425-15.1852c-29.45-17.62-59.12-18.2845-89.0424-1.2139a164.7433,164.7433,0,0,0-23.1927,16.4524,158.6233,158.6233,0,0,1-26.8217,18.1931c-22.043,11.667-43.9494,11.5768-65.8266-.4538a159.3085,159.3085,0,0,1-24.6771-16.9277c-7.97-6.5843-16.1125-12.9186-25.1306-18.0333C89.7,5.2958,76.8468.5815,62.6138.51,38.4654.3878,19.4228,12.25,1.3892,26.5315c-1.8474,1.4631-1.2677,2.6526-.21,4.19C4.8576,36.0717,8.6234,41.3748,12.01,46.9078Z"/><path class="a" d="M4114.04,175.1222c-17.917-14.48-37.081-26.0414-59.3716-26.55-20.4541.3255-36.634,7.7351-51.5747,18.2841-6.6577,4.7006-12.907,9.9788-19.3491,14.9855a134.1641,134.1641,0,0,1-26.1885,16.3959q-26.7213,12.2778-53.6919.5912c-13.2893-5.7565-24.7859-14.2225-35.8828-23.3452-13.91-11.4357-29.04-20.6632-46.81-24.7739-23.7212-5.4872-45.1186.7669-65.2478,13.2109-8.3891,5.1861-15.7722,11.6979-23.5764,17.6586-14.157,10.8132-29.1436,19.8841-47.2866,22.3873-12.4068,1.7118-24.2053-.3568-35.6543-5.0572-13.4031-5.5028-24.9812-13.8739-36.0694-23.0212q-.7422-.6124-1.489-1.2181c-.0944-.0824-.175-.1626-.28-.2471q-.8189-.6558-1.6416-1.3047c-9.9206-7.9416-20.3342-15.11-32.2077-20.0376a67.2114,67.2114,0,0,0-9.0938-3.0459c-.123-.0316-.2458-.0559-.3687-.0866-.8479-.2117-1.6955-.4117-2.5432-.5856-.237-.0487-.4738-.0845-.7107-.13-.7363-.1419-1.4726-.2811-2.2087-.3944-.3213-.05-.6426-.0827-.9639-.1268-.6526-.0894-1.3054-.1814-1.958-.2483-.3943-.0406-.7883-.0622-1.1823-.0946-.5806-.0475-1.1612-.1011-1.7415-.1308-.4585-.0237-.9167-.0264-1.3752-.0389-.5169-.0141-1.0337-.0364-1.5508-.0363s-1.0337.0222-1.5506.0363c-.4582.0125-.917.0152-1.3752.0389-.58.03-1.16.0833-1.74.1308-.3945.0324-.789.054-1.1836.0946-.6518.0669-1.3039.1588-1.956.2481-.3221.0442-.6438.0774-.9659.1271-.7358.1133-1.4719.2524-2.2077.3942-.2373.0457-.4744.0816-.7114.13-.8477.1739-1.6954.3739-2.5433.5856-.1228.0307-.2458.055-.3686.0866a67.2021,67.2021,0,0,0-9.0938,3.0459c-11.8737,4.9278-22.2878,12.0966-32.2089,20.0384q-.8215.65-1.64,1.3039c-.1052.0844-.1858.1644-.28.2467q-.7459.6078-1.49,1.2185c-11.0883,9.1473-22.6662,17.5184-36.0693,23.0212-11.449,4.7-23.2475,6.769-35.6543,5.0572-18.1431-2.5032-33.1294-11.5741-47.2866-22.3873-7.8042-5.9607-15.1873-12.4725-23.5764-17.6586-20.1292-12.444-41.5266-18.6981-65.2478-13.2109-17.7705,4.1107-32.9,13.3382-46.8106,24.7739-11.0967,9.1227-22.5932,17.5887-35.8825,23.3452q-27.0027,11.6964-53.6919-.5912a134.1752,134.1752,0,0,1-26.1888-16.3959c-2.3364-1.8161-4.6491-3.6658-6.9638-5.5127a2.4768,2.4768,0,0,0-.9168-1.2065c-17.917-14.48-37.0808-26.0414-59.3716-26.55-.62.01-1.2233.0467-1.8356.0694-.6119-.0227-1.2156-.0595-1.8355-.0694-22.291.509-41.4548,12.07-59.3716,26.55a2.4766,2.4766,0,0,0-.917,1.2065c-2.3144,1.847-4.6272,3.6967-6.9638,5.5127a134.17,134.17,0,0,1-26.1885,16.3959q-26.7213,12.2778-53.6919.5912c-13.2893-5.7565-24.7861-14.2225-35.8828-23.3452-13.91-11.4357-29.04-20.6632-46.81-24.7739-23.7212-5.4872-45.1189.7669-65.2478,13.2109-8.3892,5.1861-15.7725,11.6979-23.5764,17.6586-14.1573,10.8132-29.1436,19.8841-47.2867,22.3873-12.4067,1.7118-24.2055-.3568-35.6543-5.0572-13.403-5.5028-24.9812-13.8739-36.0693-23.0212q-.7424-.6124-1.489-1.2181c-.0945-.0824-.1753-.1626-.2808-.2471q-.8184-.6558-1.6413-1.3047c-9.9209-7.9416-20.3345-15.11-32.2078-20.0376a67.2241,67.2241,0,0,0-9.0937-3.0459c-.1231-.0316-.2459-.0559-.3689-.0866-.8477-.2117-1.6956-.4117-2.5433-.5856-.2368-.0487-.4736-.0845-.71-.13-.7363-.1419-1.4727-.2811-2.2087-.3944-.3213-.05-.6429-.0827-.9642-.1268-.6525-.0894-1.3051-.1814-1.9577-.2483-.3943-.0406-.7883-.0622-1.1824-.0946-.5806-.0475-1.1611-.1011-1.7414-.1308-.4585-.0237-.9168-.0264-1.3753-.0389-.5168-.0141-1.0337-.0364-1.5508-.0363s-1.0337.0222-1.55.0363c-.4585.0125-.917.0152-1.3755.0389-.58.03-1.16.0833-1.74.1308-.3946.0324-.7891.054-1.1836.0946-.6521.0669-1.3042.1588-1.9563.2481-.3218.0442-.6438.0774-.9658.1271-.7359.1133-1.4717.2524-2.2076.3942-.2373.0457-.4743.0816-.7114.13-.8476.1739-1.6955.3739-2.5432.5856-.1228.0307-.2459.055-.3687.0866a67.1962,67.1962,0,0,0-9.0937,3.0459c-11.8738,4.9278-22.2878,12.0966-32.209,20.0384q-.8214.65-1.64,1.3039c-.1052.0844-.1858.1644-.28.2467q-.7457.6078-1.49,1.2185c-11.0882,9.1473-22.6661,17.5184-36.0691,23.0212-11.449,4.7-23.2476,6.769-35.6543,5.0572-18.1433-2.5032-33.13-11.5741-47.2869-22.3873-7.804-5.9607-15.1873-12.4725-23.5762-17.6586-20.1291-12.444-41.5266-18.6981-65.2478-13.2109-17.7705,4.1107-32.9,13.3382-46.8105,24.7739-11.0967,9.1227-22.5933,17.5887-35.8828,23.3452q-27.0023,11.6964-53.6917-.5912a134.16,134.16,0,0,1-26.1887-16.3959c-2.41-1.8734-4.7954-3.7826-7.1834-5.6875a2.76,2.76,0,0,0-.8593-1.0317c-17.917-14.48-37.0808-26.0414-59.3716-26.55-.5925.0094-1.1692.0451-1.7547.0663-.5852-.0212-1.1621-.0569-1.7543-.0663-22.2911.509-41.4549,12.07-59.3719,26.55a2.7622,2.7622,0,0,0-.8593,1.0318c-2.388,1.9048-4.773,3.814-7.1834,5.6874a134.1619,134.1619,0,0,1-26.1886,16.3959q-26.7212,12.2778-53.6918.5912c-13.2893-5.7565-24.786-14.2225-35.8828-23.3452-13.91-11.4357-29.04-20.6632-46.81-24.7739-23.7212-5.4872-45.1188.7669-65.2479,13.2109-8.389,5.1861-15.7722,11.6979-23.5763,17.6586-14.1572,10.8132-29.1436,19.8841-47.2866,22.3873-12.4068,1.7118-24.2056-.3568-35.6543-5.0572-13.4032-5.5028-24.9812-13.8739-36.0694-23.0212q-.7422-.6124-1.489-1.2181c-.0945-.0824-.1751-.1626-.2806-.2471q-.8187-.6558-1.6415-1.3047c-9.9209-7.9416-20.3345-15.11-32.2079-20.0376a67.2055,67.2055,0,0,0-9.0937-3.0459c-.1229-.0316-.2458-.0559-.3688-.0866-.8477-.2117-1.6954-.4117-2.5431-.5856-.2369-.0487-.4737-.0845-.7107-.13-.7362-.1419-1.4725-.2811-2.2086-.3944-.3213-.05-.6427-.0827-.964-.1268-.6527-.0894-1.3053-.1814-1.9579-.2483-.3943-.0406-.7883-.0622-1.1823-.0946-.5806-.0475-1.1612-.1011-1.7415-.1308-.4585-.0237-.9169-.0264-1.3752-.0389-.5169-.0141-1.0339-.0364-1.5508-.0363s-1.0337.0222-1.5506.0363c-.4585.0125-.917.0152-1.3755.0389-.58.03-1.16.0833-1.74.1308-.3945.0324-.7891.054-1.1836.0946-.652.0669-1.3042.1588-1.9562.2481-.3219.0442-.6439.0774-.9658.1271-.7358.1133-1.4718.2524-2.2076.3942-.2373.0457-.4744.0816-.7116.13-.8475.1739-1.6954.3739-2.5431.5856-.1229.0307-.2458.055-.3686.0866a67.2021,67.2021,0,0,0-9.0938,3.0459c-11.8739,4.9278-22.2878,12.0966-32.2089,20.0384q-.8217.65-1.64,1.3039c-.1053.0844-.1858.1644-.28.2467q-.7458.6078-1.49,1.2185c-11.0881,9.1473-22.666,17.5184-36.0691,23.0212-11.449,4.7-23.2477,6.769-35.6544,5.0572-18.1432-2.5032-33.13-11.5741-47.2868-22.3873-7.8039-5.9607-15.1871-12.4725-23.5761-17.6586-20.1292-12.444-41.5268-18.6981-65.248-13.2109-17.77,4.1107-32.9,13.3382-46.81,24.7739-11.0967,9.1227-22.5932,17.5887-35.8827,23.3452q-27.0024,11.6964-53.6917-.5912a134.1693,134.1693,0,0,1-26.1888-16.3959c-2.3366-1.8161-4.6491-3.6658-6.9638-5.5127a2.4768,2.4768,0,0,0-.9168-1.2065c-17.917-14.48-37.0808-26.0414-59.3716-26.55-.62.01-1.2236.0467-1.8357.0694-.612-.0227-1.2157-.0595-1.8355-.0694-22.2909.509-41.4548,12.07-59.3717,26.55a2.4766,2.4766,0,0,0-.9168,1.2065c-2.3146,1.847-4.6272,3.6967-6.9638,5.5127a134.1715,134.1715,0,0,1-26.1887,16.3959q-26.7211,12.2778-53.6918.5912c-13.2893-5.7565-24.786-14.2225-35.8828-23.3452-13.91-11.4357-29.04-20.6632-46.81-24.7739-23.7211-5.4872-45.1187.7669-65.2478,13.2109-8.3891,5.1861-15.7722,11.6979-23.5763,17.6586-14.1572,10.8132-29.1436,19.8841-47.2867,22.3873-12.4067,1.7118-24.2054-.3568-35.6543-5.0572-13.4031-5.5028-24.9811-13.8739-36.0693-23.0212q-.7424-.6124-1.489-1.2181c-.0945-.0824-.1751-.1626-.2806-.2471q-.8187-.6558-1.6415-1.3047c-9.9208-7.9416-20.3344-15.11-32.2079-20.0376a67.2055,67.2055,0,0,0-9.0937-3.0459c-.123-.0316-.2458-.0559-.3687-.0866-.8478-.2117-1.6955-.4117-2.5432-.5856-.2369-.0487-.4738-.0845-.7107-.13-.7362-.1419-1.4725-.2811-2.2086-.3944-.3214-.05-.6427-.0827-.964-.1268-.6526-.0894-1.3054-.1814-1.9579-.2483-.3942-.0406-.7883-.0622-1.1824-.0946-.5805-.0475-1.161-.1011-1.7415-.1308-.4584-.0237-.9168-.0264-1.3752-.0389-.5169-.0141-1.0338-.0364-1.5507-.0363s-1.0337.0222-1.5506.0363c-.4584.0125-.917.0152-1.3754.0389-.58.03-1.16.0833-1.74.1308-.3944.0324-.789.054-1.1835.0946-.652.0669-1.3041.1588-1.9562.2481-.3219.0442-.6438.0774-.9658.1271-.7358.1133-1.4717.2524-2.2077.3942-.2372.0457-.4743.0816-.7115.13-.8476.1739-1.6953.3739-2.5431.5856-.1229.0307-.2458.055-.3687.0866a67.2008,67.2008,0,0,0-9.0937,3.0459c-11.8739,4.9278-22.2878,12.0966-32.209,20.0384q-.8215.65-1.64,1.3039c-.1053.0844-.1859.1644-.28.2467q-.7458.6078-1.4895,1.2185c-11.0882,9.1473-22.6662,17.5184-36.0693,23.0212-11.4489,4.7-23.2476,6.769-35.6543,5.0572-18.1431-2.5032-33.13-11.5741-47.2867-22.3873-7.8041-5.9607-15.1872-12.4725-23.5763-17.6586-20.1291-12.444-41.5267-18.6981-65.2479-13.2109-17.77,4.1107-32.9,13.3382-46.81,24.7739-11.0968,9.1227-22.5934,17.5887-35.8828,23.3452q-27.0022,11.6964-53.6917-.5912a134.1693,134.1693,0,0,1-26.1888-16.3959c-6.4419-5.0067-12.6913-10.2849-19.3488-14.9855-14.9408-10.549-31.1208-17.9586-51.5746-18.2841-22.291.509-41.4548,12.07-59.3717,26.55-1.86,1.5029-.6209,2.5441.1906,3.7483,3.7218,5.5227,7.557,10.9737,11.1177,16.5984,1.5066,2.38,2.6148,2.2292,4.5962.5946A114.1242,114.1242,0,0,1,38.04,181.9789q24.0143-12.1141,47.953.0861c8.67,4.4086,16.4258,10.1207,23.8848,16.2878,11.5873,9.5805,23.7969,18.2007,37.5038,24.5579,24.3543,11.2954,48.8087,11.794,73.4551.9508,14.464-6.3635,27.266-15.282,39.3712-25.2927a122.1405,122.1405,0,0,1,22.286-15.0972c18.8326-9.5885,37.6757-9.7191,56.5923-.2172a117.1216,117.1216,0,0,1,21.9613,14.6814,213.1281,213.1281,0,0,0,25.1021,18.096c34.1209,20.7129,68.4277,21.4916,102.99,1.0878a200.8268,200.8268,0,0,0,25.6785-18.1352q1.2117-.9995,2.4315-1.9873a7.91,7.91,0,0,0,1.3077-.9348q4.2963-3.6228,8.8655-6.8764l.013-.0094q4.5679-3.2594,9.3874-6.1766,11.2482-6.8238,22.482-7.3182c.0246-.001.0493-.0029.0739-.0038.35-.0146.7-.019,1.0492-.0243.1871-.0024.3743-.0084.5613-.0082s.3742.0058.5613.0082c.35.0053.7.01,1.0492.0243.0246.0009.0493.0028.0739.0038q11.2428.4879,22.4819,7.3182,4.8161,2.9219,9.3875,6.1766l.013.0094q4.5654,3.2582,8.8655,6.8764a7.9071,7.9071,0,0,0,1.3075.9346q1.2195.9885,2.4317,1.9875A200.8268,200.8268,0,0,0,632.84,217.12c34.5626,20.4038,68.8694,19.6251,102.99-1.0878a213.1281,213.1281,0,0,0,25.1021-18.096,117.1249,117.1249,0,0,1,21.9613-14.6814c18.9166-9.5019,37.76-9.3713,56.5923.2172a122.1363,122.1363,0,0,1,22.2859,15.0972c12.1054,10.0107,24.9074,18.9292,39.3714,25.2927,24.6463,10.8432,49.1007,10.3446,73.455-.9508,13.7069-6.3572,25.9164-14.9774,37.5038-24.5579,7.459-6.1671,15.2148-11.8792,23.8848-16.2878a49.4259,49.4259,0,0,1,47.6293,0c8.67,4.4086,16.4258,10.1207,23.8848,16.2878,11.5874,9.5805,23.7969,18.2007,37.5038,24.5579,24.3544,11.2954,48.8087,11.794,73.4551.9508,14.464-6.3635,27.266-15.282,39.3712-25.2927a122.1405,122.1405,0,0,1,22.286-15.0972c18.8326-9.5885,37.6757-9.7191,56.5923-.2172a117.1184,117.1184,0,0,1,21.9613,14.6814,213.1353,213.1353,0,0,0,25.102,18.096c34.121,20.7129,68.4278,21.4916,102.99,1.0878a200.8268,200.8268,0,0,0,25.6785-18.1352q1.2117-.9995,2.4315-1.9873a7.9057,7.9057,0,0,0,1.3076-.9348q4.2964-3.6228,8.8656-6.8764l.0131-.0094q4.5676-3.2594,9.3874-6.1766,11.2482-6.8238,22.4819-7.3182c.0247-.001.0494-.0029.0739-.0038.35-.0146.6995-.019,1.0492-.0243.187-.0024.3743-.0084.5613-.0082s.3742.0058.5613.0082c.35.0053.6994.01,1.0493.0243.0245.0009.0492.0028.0737.0038q11.2431.4879,22.4821,7.3182,4.8159,2.9219,9.3874,6.1766l.0131.0094q4.5653,3.2582,8.8654,6.8764a7.9154,7.9154,0,0,0,1.3075.9346q1.2195.9885,2.4318,1.9875a200.82,200.82,0,0,0,25.6785,18.1352c34.5625,20.4038,68.8694,19.6251,102.99-1.0878a213.1281,213.1281,0,0,0,25.1021-18.096,117.1224,117.1224,0,0,1,21.9614-14.6814c18.9165-9.5019,37.7595-9.3713,56.5923.2172a122.15,122.15,0,0,1,22.2859,15.0972c12.1053,10.0107,24.9073,18.9292,39.3713,25.2927,24.6462,10.8432,49.1007,10.3446,73.4551-.9508,13.7068-6.3572,25.9164-14.9774,37.5038-24.5579,7.4588-6.1671,15.2147-11.8792,23.8846-16.2878a49.723,49.723,0,0,1,47.7915,0c8.67,4.4086,16.4258,10.1207,23.8848,16.2878,11.5874,9.5805,23.7968,18.2007,37.5036,24.5579,24.3545,11.2954,48.8089,11.794,73.4551.9508,14.4641-6.3635,27.2661-15.282,39.3713-25.2927a122.15,122.15,0,0,1,22.2859-15.0972c18.8328-9.5885,37.6758-9.7191,56.5923-.2172a117.1159,117.1159,0,0,1,21.9614,14.6814,213.1281,213.1281,0,0,0,25.1021,18.096c34.1211,20.7129,68.4277,21.4916,102.99,1.0878a200.8008,200.8008,0,0,0,25.6787-18.1352q1.2115-.9995,2.4314-1.9873a7.8936,7.8936,0,0,0,1.3077-.9348q4.2963-3.6228,8.8654-6.8764l.0132-.0094q4.5678-3.2594,9.3875-6.1766,11.248-6.8238,22.4819-7.3182c.0247-.001.0493-.0029.074-.0038.35-.0146.6992-.019,1.049-.0243.1871-.0024.3743-.0084.5613-.0082s.3743.0058.5613.0082c.35.0053.6995.01,1.0493.0243.0247.0009.0491.0028.0738.0038q11.2429.4879,22.4821,7.3182,4.8157,2.9219,9.3872,6.1766l.0132.0094q4.5652,3.2582,8.8655,6.8764a7.9026,7.9026,0,0,0,1.3074.9346q1.22.9885,2.4319,1.9875a200.8187,200.8187,0,0,0,25.6784,18.1352c34.5625,20.4038,68.8694,19.6251,102.99-1.0878a213.1353,213.1353,0,0,0,25.102-18.096,117.1256,117.1256,0,0,1,21.9614-14.6814c18.9165-9.5019,37.76-9.3713,56.5923.2172a122.1432,122.1432,0,0,1,22.2859,15.0972c12.1052,10.0107,24.9075,18.9292,39.3713,25.2927,24.6463,10.8432,49.1006,10.3446,73.4551-.9508,13.7068-6.3572,25.9165-14.9774,37.5039-24.5579,7.4588-6.1671,15.2146-11.8792,23.8846-16.2878a49.4259,49.4259,0,0,1,47.6293,0c8.67,4.4086,16.4258,10.1207,23.8848,16.2878,11.5874,9.5805,23.7969,18.2007,37.5039,24.5579,24.3543,11.2954,48.8086,11.794,73.4551.9508,14.4639-6.3635,27.2659-15.282,39.3713-25.2927a122.13,122.13,0,0,1,22.2859-15.0972c18.8325-9.5885,37.6756-9.7191,56.5923-.2172a117.1209,117.1209,0,0,1,21.9612,14.6814,213.1353,213.1353,0,0,0,25.102,18.096c34.1211,20.7129,68.4278,21.4916,102.99,1.0878a200.8268,200.8268,0,0,0,25.6785-18.1352q1.2117-.9995,2.4316-1.9873a7.9141,7.9141,0,0,0,1.3076-.9348q4.2965-3.6228,8.8655-6.8764l.013-.0094q4.5681-3.2594,9.3874-6.1766,11.2482-6.8238,22.4819-7.3182c.0247-.001.0494-.0029.074-.0038.35-.0146.6995-.019,1.0491-.0243.1873-.0024.3743-.0084.5613-.0082s.3742.0058.5615.0082c.35.0053.6992.01,1.0491.0243.0246.0009.0493.0028.0739.0038q11.2428.4879,22.482,7.3182,4.8161,2.9219,9.3874,6.1766l.013.0094q4.5656,3.2582,8.8654,6.8764a7.9161,7.9161,0,0,0,1.3077.9346q1.22.9885,2.4316,1.9875a200.8268,200.8268,0,0,0,25.6785,18.1352c34.5625,20.4038,68.8694,19.6251,102.99-1.0878a213.1116,213.1116,0,0,0,25.1021-18.096,117.1224,117.1224,0,0,1,21.9614-14.6814c18.9165-9.5019,37.76-9.3713,56.5923.2172a122.14,122.14,0,0,1,22.2859,15.0972c12.1054,10.0107,24.9074,18.9292,39.3713,25.2927,24.6465,10.8432,49.1008,10.3446,73.4551-.9508,13.707-6.3572,25.9165-14.9774,37.5039-24.5579,7.459-6.1671,15.2148-11.8792,23.8847-16.2878q23.9862-12.1967,47.9529-.0861a114.1168,114.1168,0,0,1,21.1643,14.0846c1.9815,1.6346,3.09,1.7854,4.5962-.5946,3.5611-5.6247,7.396-11.0757,11.1177-16.5984C4114.661,177.6663,4115.9,176.6251,4114.04,175.1222Z"/></svg>